<mxfile host="app.diagrams.net" agent="Mozilla/5.0 (Windows NT 10.0; Win64; x64) AppleWebKit/537.36 (KHTML, like Gecko) Chrome/127.0.0.0 Safari/537.36" version="24.7.7">
  <diagram name="Page-1" id="UBUiGW2qb2GtG0QHnrKs">
    <mxGraphModel dx="3814" dy="1846" grid="1" gridSize="10" guides="1" tooltips="1" connect="1" arrows="1" fold="1" page="1" pageScale="1" pageWidth="850" pageHeight="1100" math="0" shadow="0">
      <root>
        <mxCell id="0" />
        <mxCell id="1" parent="0" />
        <mxCell id="W_W-9WW1szH-kqkKnhYK-2" value="diceRoll()" style="ellipse;whiteSpace=wrap;html=1;fontSize=14;fillColor=#d5e8d4;strokeColor=#82b366;" vertex="1" parent="1">
          <mxGeometry x="-279" y="-440" width="120" height="80" as="geometry" />
        </mxCell>
        <mxCell id="W_W-9WW1szH-kqkKnhYK-4" value="" style="endArrow=classic;html=1;rounded=0;exitX=0.5;exitY=1;exitDx=0;exitDy=0;fontSize=14;entryX=0.5;entryY=0;entryDx=0;entryDy=0;" edge="1" parent="1" source="W_W-9WW1szH-kqkKnhYK-2" target="W_W-9WW1szH-kqkKnhYK-55">
          <mxGeometry width="50" height="50" relative="1" as="geometry">
            <mxPoint x="-280" y="-250" as="sourcePoint" />
            <mxPoint x="-219.39999999999986" y="-280.0000000000002" as="targetPoint" />
          </mxGeometry>
        </mxCell>
        <mxCell id="W_W-9WW1szH-kqkKnhYK-49" style="edgeStyle=orthogonalEdgeStyle;rounded=0;orthogonalLoop=1;jettySize=auto;html=1;exitX=1;exitY=0.5;exitDx=0;exitDy=0;entryX=0;entryY=0.5;entryDx=0;entryDy=0;fontSize=14;" edge="1" parent="1" source="W_W-9WW1szH-kqkKnhYK-55" target="W_W-9WW1szH-kqkKnhYK-40">
          <mxGeometry relative="1" as="geometry">
            <mxPoint x="-160" y="-250.00000000000023" as="sourcePoint" />
          </mxGeometry>
        </mxCell>
        <mxCell id="W_W-9WW1szH-kqkKnhYK-7" value="" style="endArrow=classic;html=1;rounded=0;exitX=0;exitY=0.5;exitDx=0;exitDy=0;entryX=0.5;entryY=0;entryDx=0;entryDy=0;fontSize=14;" edge="1" parent="1" source="W_W-9WW1szH-kqkKnhYK-55" target="W_W-9WW1szH-kqkKnhYK-38">
          <mxGeometry width="50" height="50" relative="1" as="geometry">
            <mxPoint x="-280" y="-250.00000000000023" as="sourcePoint" />
            <mxPoint x="-430" y="-200" as="targetPoint" />
            <Array as="points">
              <mxPoint x="-430" y="-250" />
            </Array>
          </mxGeometry>
        </mxCell>
        <mxCell id="W_W-9WW1szH-kqkKnhYK-8" value="false" style="text;html=1;align=center;verticalAlign=middle;resizable=0;points=[];autosize=1;strokeColor=none;fillColor=none;fontSize=14;" vertex="1" parent="1">
          <mxGeometry x="-390" y="-280" width="50" height="30" as="geometry" />
        </mxCell>
        <mxCell id="W_W-9WW1szH-kqkKnhYK-11" value="true" style="text;html=1;align=center;verticalAlign=middle;resizable=0;points=[];autosize=1;strokeColor=none;fillColor=none;fontSize=14;" vertex="1" parent="1">
          <mxGeometry x="-110" y="-280" width="50" height="30" as="geometry" />
        </mxCell>
        <mxCell id="W_W-9WW1szH-kqkKnhYK-21" style="edgeStyle=orthogonalEdgeStyle;rounded=0;orthogonalLoop=1;jettySize=auto;html=1;entryX=0.5;entryY=0;entryDx=0;entryDy=0;fontSize=14;exitX=0.5;exitY=1;exitDx=0;exitDy=0;" edge="1" parent="1" source="W_W-9WW1szH-kqkKnhYK-38" target="W_W-9WW1szH-kqkKnhYK-22">
          <mxGeometry relative="1" as="geometry">
            <mxPoint x="-429.95652173913027" y="-90" as="targetPoint" />
            <mxPoint x="-440" y="-140" as="sourcePoint" />
          </mxGeometry>
        </mxCell>
        <mxCell id="W_W-9WW1szH-kqkKnhYK-27" style="edgeStyle=orthogonalEdgeStyle;rounded=0;orthogonalLoop=1;jettySize=auto;html=1;entryX=1;entryY=0.5;entryDx=0;entryDy=0;exitX=0;exitY=0.5;exitDx=0;exitDy=0;fontSize=14;" edge="1" parent="1" source="W_W-9WW1szH-kqkKnhYK-38" target="W_W-9WW1szH-kqkKnhYK-26">
          <mxGeometry relative="1" as="geometry">
            <mxPoint x="-490" y="-170" as="sourcePoint" />
          </mxGeometry>
        </mxCell>
        <mxCell id="W_W-9WW1szH-kqkKnhYK-24" style="edgeStyle=orthogonalEdgeStyle;rounded=0;orthogonalLoop=1;jettySize=auto;html=1;exitX=0.5;exitY=1;exitDx=0;exitDy=0;entryX=0.5;entryY=0;entryDx=0;entryDy=0;fontSize=14;" edge="1" parent="1" source="W_W-9WW1szH-kqkKnhYK-22" target="W_W-9WW1szH-kqkKnhYK-25">
          <mxGeometry relative="1" as="geometry">
            <mxPoint x="-429.95652173913027" y="30" as="targetPoint" />
          </mxGeometry>
        </mxCell>
        <mxCell id="W_W-9WW1szH-kqkKnhYK-22" value="Increment Current Player&#39;s position by diceFace&amp;nbsp;" style="rounded=0;whiteSpace=wrap;html=1;fontSize=14;" vertex="1" parent="1">
          <mxGeometry x="-490" y="-80" width="120" height="60" as="geometry" />
        </mxCell>
        <mxCell id="W_W-9WW1szH-kqkKnhYK-23" value="Yes" style="text;html=1;align=center;verticalAlign=middle;resizable=0;points=[];autosize=1;strokeColor=none;fillColor=none;fontSize=14;" vertex="1" parent="1">
          <mxGeometry x="-435" y="-120" width="50" height="30" as="geometry" />
        </mxCell>
        <mxCell id="W_W-9WW1szH-kqkKnhYK-28" style="edgeStyle=orthogonalEdgeStyle;rounded=0;orthogonalLoop=1;jettySize=auto;html=1;entryX=0.5;entryY=1;entryDx=0;entryDy=0;fontSize=14;" edge="1" parent="1" source="W_W-9WW1szH-kqkKnhYK-25" target="W_W-9WW1szH-kqkKnhYK-26">
          <mxGeometry relative="1" as="geometry" />
        </mxCell>
        <mxCell id="W_W-9WW1szH-kqkKnhYK-25" value="blit()" style="ellipse;whiteSpace=wrap;html=1;fontSize=14;" vertex="1" parent="1">
          <mxGeometry x="-475" y="50" width="90" height="50" as="geometry" />
        </mxCell>
        <mxCell id="W_W-9WW1szH-kqkKnhYK-29" style="edgeStyle=orthogonalEdgeStyle;rounded=0;orthogonalLoop=1;jettySize=auto;html=1;exitX=0.5;exitY=0;exitDx=0;exitDy=0;entryX=0;entryY=0.5;entryDx=0;entryDy=0;fontSize=14;" edge="1" parent="1" source="W_W-9WW1szH-kqkKnhYK-26" target="W_W-9WW1szH-kqkKnhYK-2">
          <mxGeometry relative="1" as="geometry" />
        </mxCell>
        <mxCell id="W_W-9WW1szH-kqkKnhYK-26" value="change current player" style="rounded=0;whiteSpace=wrap;html=1;fontSize=14;" vertex="1" parent="1">
          <mxGeometry x="-710" y="-200" width="120" height="60" as="geometry" />
        </mxCell>
        <mxCell id="W_W-9WW1szH-kqkKnhYK-30" value="No" style="text;html=1;align=center;verticalAlign=middle;resizable=0;points=[];autosize=1;strokeColor=none;fillColor=none;fontSize=14;" vertex="1" parent="1">
          <mxGeometry x="-550" y="-202" width="40" height="30" as="geometry" />
        </mxCell>
        <mxCell id="W_W-9WW1szH-kqkKnhYK-34" value="DEFAULT: blit() initial position of both the tokens at 1" style="text;html=1;align=center;verticalAlign=middle;resizable=0;points=[];autosize=1;strokeColor=none;fillColor=none;fontSize=23;fontStyle=1" vertex="1" parent="1">
          <mxGeometry x="-80" y="-610" width="560" height="40" as="geometry" />
        </mxCell>
        <mxCell id="W_W-9WW1szH-kqkKnhYK-38" value="&lt;span style=&quot;font-size: 14px;&quot;&gt;current player unlocked?&lt;/span&gt;" style="rhombus;whiteSpace=wrap;html=1;fontSize=14;" vertex="1" parent="1">
          <mxGeometry x="-490" y="-225" width="120" height="110" as="geometry" />
        </mxCell>
        <mxCell id="W_W-9WW1szH-kqkKnhYK-54" style="edgeStyle=orthogonalEdgeStyle;rounded=0;orthogonalLoop=1;jettySize=auto;html=1;exitX=0.5;exitY=0;exitDx=0;exitDy=0;entryX=0;entryY=0.5;entryDx=0;entryDy=0;fontSize=14;" edge="1" parent="1" source="W_W-9WW1szH-kqkKnhYK-40" target="W_W-9WW1szH-kqkKnhYK-57">
          <mxGeometry relative="1" as="geometry">
            <mxPoint x="120" y="-340.0000000000002" as="targetPoint" />
          </mxGeometry>
        </mxCell>
        <mxCell id="W_W-9WW1szH-kqkKnhYK-58" style="edgeStyle=orthogonalEdgeStyle;rounded=0;orthogonalLoop=1;jettySize=auto;html=1;exitX=0.5;exitY=1;exitDx=0;exitDy=0;entryX=0.5;entryY=1;entryDx=0;entryDy=0;fontSize=14;" edge="1" parent="1" source="W_W-9WW1szH-kqkKnhYK-40" target="W_W-9WW1szH-kqkKnhYK-62">
          <mxGeometry relative="1" as="geometry">
            <mxPoint x="10.29411764705901" y="-120.00000000000023" as="targetPoint" />
          </mxGeometry>
        </mxCell>
        <mxCell id="W_W-9WW1szH-kqkKnhYK-40" value="First 6?" style="rhombus;whiteSpace=wrap;html=1;fontSize=14;" vertex="1" parent="1">
          <mxGeometry x="-30" y="-290" width="80" height="80" as="geometry" />
        </mxCell>
        <mxCell id="W_W-9WW1szH-kqkKnhYK-52" value="Yes" style="text;html=1;align=center;verticalAlign=middle;resizable=0;points=[];autosize=1;strokeColor=none;fillColor=none;fontSize=14;" vertex="1" parent="1">
          <mxGeometry x="60" y="-350" width="50" height="30" as="geometry" />
        </mxCell>
        <mxCell id="W_W-9WW1szH-kqkKnhYK-55" value="&#xa;&lt;span style=&quot;color: rgb(0, 0, 0); font-family: Helvetica; font-size: 14px; font-style: normal; font-variant-ligatures: normal; font-variant-caps: normal; font-weight: 400; letter-spacing: normal; orphans: 2; text-align: center; text-indent: 0px; text-transform: none; widows: 2; word-spacing: 0px; -webkit-text-stroke-width: 0px; white-space: normal; background-color: rgb(251, 251, 251); text-decoration-thickness: initial; text-decoration-style: initial; text-decoration-color: initial; float: none; display: inline !important;&quot;&gt;diceFace == 6&lt;/span&gt;&#xa;&#xa;" style="rhombus;whiteSpace=wrap;html=1;fontSize=14;" vertex="1" parent="1">
          <mxGeometry x="-289" y="-315" width="140" height="130" as="geometry" />
        </mxCell>
        <mxCell id="W_W-9WW1szH-kqkKnhYK-61" style="edgeStyle=orthogonalEdgeStyle;rounded=0;orthogonalLoop=1;jettySize=auto;html=1;exitX=1;exitY=0.5;exitDx=0;exitDy=0;entryX=0;entryY=0.5;entryDx=0;entryDy=0;fontSize=14;" edge="1" parent="1" source="W_W-9WW1szH-kqkKnhYK-57" target="W_W-9WW1szH-kqkKnhYK-60">
          <mxGeometry relative="1" as="geometry" />
        </mxCell>
        <mxCell id="W_W-9WW1szH-kqkKnhYK-57" value="&lt;br style=&quot;font-size: 14px;&quot;&gt;&lt;span style=&quot;color: rgb(0, 0, 0); font-family: Helvetica; font-size: 14px; font-style: normal; font-variant-ligatures: normal; font-variant-caps: normal; font-weight: 400; letter-spacing: normal; orphans: 2; text-align: center; text-indent: 0px; text-transform: none; widows: 2; word-spacing: 0px; -webkit-text-stroke-width: 0px; white-space: normal; background-color: rgb(251, 251, 251); text-decoration-thickness: initial; text-decoration-style: initial; text-decoration-color: initial; float: none; display: inline !important;&quot;&gt;current player unlocked now&lt;/span&gt;&lt;div style=&quot;font-size: 14px;&quot;&gt;&lt;br style=&quot;font-size: 14px;&quot;&gt;&lt;/div&gt;" style="rounded=0;whiteSpace=wrap;html=1;fontSize=14;" vertex="1" parent="1">
          <mxGeometry x="160" y="-350" width="120" height="60" as="geometry" />
        </mxCell>
        <mxCell id="W_W-9WW1szH-kqkKnhYK-59" value="No" style="text;html=1;align=center;verticalAlign=middle;resizable=0;points=[];autosize=1;strokeColor=none;fillColor=none;fontSize=14;" vertex="1" parent="1">
          <mxGeometry x="50" y="-185" width="40" height="30" as="geometry" />
        </mxCell>
        <mxCell id="W_W-9WW1szH-kqkKnhYK-63" style="edgeStyle=orthogonalEdgeStyle;rounded=0;orthogonalLoop=1;jettySize=auto;html=1;exitX=1;exitY=0.5;exitDx=0;exitDy=0;entryX=0;entryY=0.5;entryDx=0;entryDy=0;fontSize=14;" edge="1" parent="1" source="W_W-9WW1szH-kqkKnhYK-60" target="W_W-9WW1szH-kqkKnhYK-62">
          <mxGeometry relative="1" as="geometry" />
        </mxCell>
        <mxCell id="W_W-9WW1szH-kqkKnhYK-60" value="diceRoll()" style="ellipse;whiteSpace=wrap;html=1;fontSize=14;" vertex="1" parent="1">
          <mxGeometry x="370" y="-360" width="120" height="80" as="geometry" />
        </mxCell>
        <mxCell id="W_W-9WW1szH-kqkKnhYK-65" style="edgeStyle=orthogonalEdgeStyle;rounded=0;orthogonalLoop=1;jettySize=auto;html=1;exitX=1;exitY=0.5;exitDx=0;exitDy=0;entryX=0;entryY=0.5;entryDx=0;entryDy=0;fontSize=14;" edge="1" parent="1" source="W_W-9WW1szH-kqkKnhYK-62" target="W_W-9WW1szH-kqkKnhYK-64">
          <mxGeometry relative="1" as="geometry" />
        </mxCell>
        <mxCell id="W_W-9WW1szH-kqkKnhYK-62" value="Increment Current Player&#39;s position by diceFace&amp;nbsp;" style="rounded=0;whiteSpace=wrap;html=1;fontSize=14;" vertex="1" parent="1">
          <mxGeometry x="590" y="-350" width="120" height="60" as="geometry" />
        </mxCell>
        <mxCell id="W_W-9WW1szH-kqkKnhYK-67" style="edgeStyle=orthogonalEdgeStyle;rounded=0;orthogonalLoop=1;jettySize=auto;html=1;exitX=0.5;exitY=0;exitDx=0;exitDy=0;entryX=0.5;entryY=1;entryDx=0;entryDy=0;fontSize=14;" edge="1" parent="1" source="W_W-9WW1szH-kqkKnhYK-64" target="W_W-9WW1szH-kqkKnhYK-68">
          <mxGeometry relative="1" as="geometry">
            <mxPoint x="850.3846153846152" y="-430" as="targetPoint" />
          </mxGeometry>
        </mxCell>
        <mxCell id="W_W-9WW1szH-kqkKnhYK-64" value="blit()" style="ellipse;whiteSpace=wrap;html=1;fontSize=14;" vertex="1" parent="1">
          <mxGeometry x="790" y="-360" width="120" height="80" as="geometry" />
        </mxCell>
        <mxCell id="W_W-9WW1szH-kqkKnhYK-69" style="edgeStyle=orthogonalEdgeStyle;rounded=0;orthogonalLoop=1;jettySize=auto;html=1;exitX=0;exitY=0.5;exitDx=0;exitDy=0;entryX=0.5;entryY=0;entryDx=0;entryDy=0;fontSize=14;" edge="1" parent="1" source="W_W-9WW1szH-kqkKnhYK-68" target="W_W-9WW1szH-kqkKnhYK-60">
          <mxGeometry relative="1" as="geometry" />
        </mxCell>
        <mxCell id="W_W-9WW1szH-kqkKnhYK-71" style="edgeStyle=orthogonalEdgeStyle;rounded=0;orthogonalLoop=1;jettySize=auto;html=1;exitX=1;exitY=0.5;exitDx=0;exitDy=0;entryX=0;entryY=0.5;entryDx=0;entryDy=0;fontSize=14;" edge="1" parent="1" target="W_W-9WW1szH-kqkKnhYK-26">
          <mxGeometry relative="1" as="geometry">
            <mxPoint x="-800" y="-167.5" as="targetPoint" />
            <mxPoint x="830" y="-512.5" as="sourcePoint" />
            <Array as="points">
              <mxPoint x="1030" y="-512" />
              <mxPoint x="1030" y="172" />
              <mxPoint x="-880" y="172" />
              <mxPoint x="-880" y="-168" />
              <mxPoint x="-710" y="-168" />
            </Array>
          </mxGeometry>
        </mxCell>
        <mxCell id="W_W-9WW1szH-kqkKnhYK-68" value="&#xa;&lt;span style=&quot;color: rgb(0, 0, 0); font-family: Helvetica; font-size: 14px; font-style: normal; font-variant-ligatures: normal; font-variant-caps: normal; font-weight: 400; letter-spacing: normal; orphans: 2; text-align: center; text-indent: 0px; text-transform: none; widows: 2; word-spacing: 0px; -webkit-text-stroke-width: 0px; white-space: normal; background-color: rgb(251, 251, 251); text-decoration-thickness: initial; text-decoration-style: initial; text-decoration-color: initial; float: none; display: inline !important;&quot;&gt;diceFace == 6&lt;/span&gt;&#xa;&#xa;" style="rhombus;whiteSpace=wrap;html=1;fontSize=14;" vertex="1" parent="1">
          <mxGeometry x="780" y="-580" width="140" height="130" as="geometry" />
        </mxCell>
        <mxCell id="W_W-9WW1szH-kqkKnhYK-70" value="Yes" style="text;html=1;align=center;verticalAlign=middle;resizable=0;points=[];autosize=1;strokeColor=none;fillColor=none;fontSize=14;labelBorderColor=none;" vertex="1" parent="1">
          <mxGeometry x="705" y="-550" width="50" height="30" as="geometry" />
        </mxCell>
        <mxCell id="W_W-9WW1szH-kqkKnhYK-72" value="No" style="text;html=1;align=center;verticalAlign=middle;resizable=0;points=[];autosize=1;strokeColor=none;fillColor=none;fontSize=14;" vertex="1" parent="1">
          <mxGeometry x="960" y="-550" width="40" height="30" as="geometry" />
        </mxCell>
      </root>
    </mxGraphModel>
  </diagram>
</mxfile>
